:FULLY-SPECIFIED
:FORCE-ALL-JOINTS-BE-3DOF
:DEGREES
130
root 9.04726 15.9093 -18.8232 6.26788 8.17264 6.0585
lfemur 21.1303 1.42563 -25.9736
ltibia 3.37934e-14 0 0
lfoot -12.5787 -2.40279 0
ltoes -8.33534 0 0
rfemur -42.3544 7.51672 6.50403
rtibia 28.5577 0 0
rfoot -18.8319 -10.8562 0
rtoes -21.3482 0 0
lowerback -8.30602 -4.13955 -7.06829
upperback -1.19576 -4.94681 1.90485
thorax 4.17347 -2.58338 5.35209
lowerneck -19.9704 -5.58128 -13.2372
upperneck 20.6349 -6.48926 11.241
head 10.769 -2.72408 5.29207
lclavicle 3.29933e-14 -1.23247e-14 0
lhumerus -32.2287 -22.7888 98.3294
lradius 34.4681 0 0
lwrist 5.72526 0 0
lhand -12.0317 -23.7701 0
lfingers 7.12502 0 0
lthumb 14.0257 5.72595 0
rclavicle 3.29933e-14 -1.23247e-14 0
rhumerus -47.7323 5.59519 -82.5482
rradius 31.9022 0 0
rwrist -18.9715 0 0
rhand -27.8548 -29.419 0
rfingers 7.12502 0 0
rthumb -1.24561 -59.3825 0
131
root 9.01276 15.8914 -18.6081 6.3627 8.48938 6.04898
lfemur 21.785 1.47751 -25.5066
ltibia 1.88477e-14 0 0
lfoot -11.9934 -2.79822 0
ltoes -8.27956 0 0
rfemur -42.2044 6.74842 7.10314
rtibia 29.1539 0 0
rfoot -17.1321 -10.3006 0
rtoes -22.2633 0 0
lowerback -8.24694 -4.15324 -7.01903
upperback -1.18984 -4.97226 1.8742
thorax 4.14389 -2.59411 5.29167
lowerneck -20.0464 -5.65475 -13.2665
upperneck 20.4761 -6.57811 11.3075
head 10.7419 -2.75601 5.30214
lclavicle 4.44251e-14 -1.33407e-14 0
lhumerus -32.6941 -22.1448 98.574
lradius 33.1009 0 0
lwrist 4.52321 0 0
lhand -12.6014 -23.6414 0
lfingers 7.12502 0 0
lthumb 13.4767 5.89137 0
rclavicle 4.44251e-14 -1.33407e-14 0
rhumerus -47.8781 5.28832 -82.4512
rradius 31.5607 0 0
rwrist -18.7915 0 0
rhand -26.7266 -32.6302 0
rfingers 7.12502 0 0
rthumb -0.155979 -62.6028 0
132
root 8.99571 15.8815 -18.5048 6.41026 8.67042 6.06219
lfemur 22.1101 1.47218 -25.297
ltibia 8.40785e-15 0 0
lfoot -11.7725 -3.01776 0
ltoes -8.07004 0 0
rfemur -42.0884 6.37163 7.37831
rtibia 29.3965 0 0
rfoot -16.3131 -10.0087 0
rtoes -22.8903 0 0
lowerback -8.21912 -4.16901 -7.01773
upperback -1.18788 -4.99475 1.85617
thorax 4.13206 -2.60469 5.27025
lowerneck -20.0884 -5.69297 -13.2808
upperneck 20.402 -6.6221 11.3296
head 10.7304 -2.77286 5.30317
lclavicle 5.14857e-14 -1.45334e-14 0
lhumerus -32.944 -21.9235 98.7472
lradius 32.4193 0 0
lwrist 3.86864 0 0
lhand -13.1424 -23.6866 0
lfingers 7.12502 0 0
lthumb 12.9554 5.88334 0
rclavicle 5.14857e-14 -1.45334e-14 0
rhumerus -47.948 5.11193 -82.3805
rradius 31.3799 0 0
rwrist -18.684 0 0
rhand -25.9809 -34.788 0
rfingers 7.12502 0 0
rthumb 0.564158 -64.7664 0
133
root 9.00546 15.8832 -18.5706 6.3928 8.64565 6.11952
lfemur 21.9314 1.38423 -25.4912
ltibia 6.36111e-15 0 0
lfoot -12.1168 -2.97048 0
ltoes -7.68344 0 0
rfemur -42.04 6.59503 7.13481
rtibia 29.0787 0 0
rfoot -16.8983 -10.1335 0
rtoes -22.993 0 0
lowerback -8.2432 -4.19217 -7.10169
upperback -1.19302 -5.01692 1.857
thorax 4.15006 -2.61735 5.31392
lowerneck -20.0803 -5.67487 -13.2646
upperneck 20.4623 -6.5946 11.277
head 10.7437 -2.76552 5.28701
lclavicle 5.17461e-14 -1.59028e-14 0
lhumerus -32.8727 -22.3464 98.821
lradius 32.8069 0 0
lwrist 4.07631 0 0
lhand -13.5907 -23.998 0
lfingers 7.12502 0 0
lthumb 12.5237 5.60671 0
rclavicle 5.17461e-14 -1.59028e-14 0
rhumerus -47.8982 5.13757 -82.3518
rradius 31.4444 0 0
rwrist -18.7101 0 0
rhand -25.8973 -35.1427 0
rfingers 7.12502 0 0
rthumb 0.644928 -65.1215 0
134
root 8.97138 15.8762 -18.3523 6.44365 8.76724 5.94854
lfemur 22.5457 1.6302 -24.8557
ltibia 5.08741e-15 0 0
lfoot -10.9993 -3.14892 0
ltoes -8.55748 0 0
rfemur -42.0897 5.8639 7.94581
rtibia 30.0764 0 0
rfoot -14.9829 -9.63652 0
rtoes -23.0166 0 0
lowerback -8.15381 -4.12659 -6.85514
upperback -1.17818 -4.95619 1.85246
thorax 4.08713 -2.58201 5.18374
lowerneck -20.1036 -5.73862 -13.3264
upperneck 20.2494 -6.68521 11.4396
head 10.6936 -2.79165 5.3372
lclavicle 5.32864e-14 -1.28051e-14 0
lhumerus -33.1511 -21.0276 98.6166
lradius 31.4379 0 0
lwrist 3.13624 0 0
lhand -12.7838 -23.2667 0
lfingers 7.12502 0 0
lthumb 13.3006 6.27305 0
rclavicle 5.32864e-14 -1.28051e-14 0
rhumerus -48.0548 4.99696 -82.3881
rradius 31.1957 0 0
rwrist -18.5471 0 0
rhand -25.7696 -35.2102 0
rfingers 7.12502 0 0
rthumb 0.768219 -65.1909 0
135
root 8.9279 15.8723 -18.0749 6.48445 8.83946 5.66222
lfemur 23.3091 2.01989 -23.9758
ltibia 7.30349e-15 0 0
lfoot -9.33405 -3.27419 0
ltoes -9.96813 0 0
rfemur -42.2094 4.96553 9.07052
rtibia 31.5076 0 0
rfoot -12.4858 -9.00728 0
rtoes -22.7312 0 0
lowerback -8.02276 -4.00988 -6.46169
upperback -1.1562 -4.84278 1.85905
thorax 3.99029 -2.5177 4.99221
lowerneck -20.1053 -5.81504 -13.4222
upperneck 19.9493 -6.79929 11.6862
head 10.6166 -2.82212 5.41837
lclavicle 5.12405e-14 -7.42131e-15 0
lhumerus -33.4281 -19.0596 98.1522
lradius 29.6802 0 0
lwrist 1.98123 0 0
lhand -11.3522 -22.171 0
lfingers 7.12502 0 0
lthumb 14.6789 7.25649 0
rclavicle 5.12405e-14 -7.42131e-15 0
rhumerus -48.2531 4.88027 -82.4762
rradius 30.9138 0 0
rwrist -18.3233 0 0
rhand -25.9596 -34.1939 0
rfingers 7.12502 0 0
rthumb 0.584714 -64.1746 0
136
root 8.88438 15.8704 -17.7963 6.51525 8.87669 5.34097
lfemur 24.0687 2.4442 -23.0566
ltibia 1.17283e-14 0 0
lfoot -7.57069 -3.36427 0
ltoes -11.547 0 0
rfemur -42.3655 4.0633 10.2498
rtibia 33.0298 0 0
rfoot -9.89494 -8.38551 0
rtoes -22.3162 0 0
lowerback -7.88504 -3.87616 -6.0235
upperback -1.1317 -4.71114 1.87003
thorax 3.88654 -2.44358 4.78306
lowerneck -20.0985 -5.89174 -13.5273
upperneck 19.6381 -6.91659 11.9553
head 10.5358 -2.8525 5.5088
lclavicle 4.74564e-14 -1.24242e-15 0
lhumerus -33.6676 -16.9683 97.6064
lradius 27.9082 0 0
lwrist 0.877871 0 0
lhand -9.63841 -20.9325 0
lfingers 7.12502 0 0
lthumb 16.3292 8.36157 0
rclavicle 4.74564e-14 -1.24242e-15 0
rhumerus -48.4584 4.79372 -82.5923
rradius 30.6492 0 0
rwrist -18.0965 0 0
rhand -26.3052 -32.6551 0
rfingers 7.12502 0 0
rthumb 0.250965 -62.6347 0
137
root 8.85018 15.8695 -17.5746 6.53608 8.89331 5.06517
lfemur 24.6711 2.79398 -22.3034
ltibia 1.70807e-14 0 0
lfoot -6.15871 -3.43711 0
ltoes -12.9256 0 0
rfemur -42.5242 3.32054 11.2244
rtibia 34.3006 0 0
rfoot -7.6983 -7.91098 0
rtoes -21.9511 0 0
lowerback -7.77565 -3.75957 -5.64276
upperback -1.10928 -4.59572 1.87866
thorax 3.80293 -2.37883 4.60003
lowerneck -20.0962 -5.95633 -13.617
upperneck 19.3915 -7.01683 12.1856
head 10.4744 -2.87836 5.58682
lclavicle 4.37821e-14 4.24074e-15 0
lhumerus -33.8335 -15.2794 97.1577
lradius 26.4958 0 0
lwrist 0.0927833 0 0
lhand -7.98453 -19.7731 0
lfingers 7.12502 0 0
lthumb 17.9217 9.39281 0
rclavicle 4.37821e-14 4.24074e-15 0
rhumerus -48.6361 4.74355 -82.713
rradius 30.4522 0 0
rwrist -17.9247 0 0
rhand -26.6442 -31.1551 0
rfingers 7.12502 0 0
rthumb -0.0764748 -61.1336 0
138
root 8.83469 15.8685 -17.4677 6.547 8.90368 4.91522
lfemur 24.9634 2.96012 -21.9213
ltibia 2.20798e-14 0 0
lfoot -5.54762 -3.51069 0
ltoes -13.7357 0 0
rfemur -42.652 2.90063 11.7353
rtibia 34.9777 0 0
rfoot -6.38386 -7.72344 0
rtoes -21.8157 0 0
lowerback -7.72956 -3.69426 -5.42163
upperback -1.09356 -4.53099 1.87821
thorax 3.76648 -2.34261 4.48687
lowerneck -20.1117 -5.9964 -13.6667
upperneck 19.2854 -7.07977 12.3158
head 10.4554 -2.89527 5.63073
lclavicle 4.20656e-14 7.53725e-15 0
lhumerus -33.8899 -14.5189 96.9845
lradius 25.8172 0 0
lwrist -0.107427 0 0
lhand -6.73284 -18.9145 0
lfingers 7.12502 0 0
lthumb 19.1271 10.1547 0
rclavicle 4.20656e-14 7.53725e-15 0
rhumerus -48.7516 4.73597 -82.8146
rradius 30.3733 0 0
rwrist -17.8659 0 0
rhand -26.8146 -30.2554 0
rfingers 7.12502 0 0
rthumb -0.241054 -60.2336 0
139
root 8.84725 15.8665 -17.5336 6.54803 8.92219 4.97153
lfemur 24.7923 2.8335 -22.1156
ltibia 2.54444e-14 0 0
lfoot -6.18696 -3.60299 0
ltoes -13.6086 0 0
rfemur -42.7152 2.9669 11.5231
rtibia 34.7188 0 0
rfoot -6.4396 -7.96264 0
rtoes -22.0893 0 0
lowerback -7.78176 -3.71435 -5.46231
upperback -1.08916 -4.55139 1.86194
thorax 3.80422 -2.3541 4.48731
lowerneck -20.1579 -5.99956 -13.6516
upperneck 19.3959 -7.08514 12.2844
head 10.502 -2.89879 5.61884
lclavicle 4.4155e-14 7.15625e-15 0
lhumerus -33.8007 -15.2125 97.2654
lradius 26.2465 0 0
lwrist 0.54385 0 0
lhand -6.22562 -18.5785 0
lfingers 7.12502 0 0
lthumb 19.6155 10.4519 0
rclavicle 4.4155e-14 7.15625e-15 0
rhumerus -48.7702 4.77721 -82.8735
rradius 30.4631 0 0
rwrist -17.978 0 0
rhand -26.6543 -30.5173 0
rfingers 7.12502 0 0
rthumb -0.0862209 -60.497 0
140
root 8.80774 15.8755 -17.3161 6.54625 8.86404 4.72191
lfemur 25.2039 3.26262 -21.4072
ltibia 0.253309 0 0
lfoot -4.2278 -3.33926 0
ltoes -14.2788 0 0
rfemur -42.5828 2.6411 12.3313
rtibia 35.6798 0 0
rfoot -5.81054 -7.266 0
rtoes -21.2156 0 0
lowerback -7.61854 -3.62816 -5.2216
upperback -1.09627 -4.46613 1.91389
thorax 3.68068 -2.30589 4.42665
lowerneck -20.0472 -6.00639 -13.7099
upperneck 19.0618 -7.09722 12.4302
head 10.3729 -2.89534 5.67145
lclavicle 3.7225e-14 9.69444e-15 0
lhumerus -34.05 -12.9939 96.3705
lradius 24.8675 0 0
lwrist -1.20056 0 0
lhand -6.76724 -18.9809 0
lfingers 7.12502 0 0
lthumb 19.0939 10.09 0
rclavicle 3.7225e-14 9.69444e-15 0
rhumerus -48.7514 4.68688 -82.7654
rradius 30.2105 0 0
rwrist -17.6315 0 0
rhand -27.2152 -29.1401 0
rfingers 7.12502 0 0
rthumb -0.627963 -59.1154 0
141
root 8.75604 15.8926 -17.0438 6.53472 8.75917 4.39691
lfemur 25.5618 3.84446 -20.5113
ltibia 0.810589 0 0
lfoot -1.55809 -2.8598 0
ltoes -14.8552 0 0
rfemur -42.2974 2.39305 13.3077
rtibia 36.7714 0 0
rfoot -5.62274 -6.31408 0
rtoes -19.8874 0 0
lowerback -7.39026 -3.52829 -4.94781
upperback -1.1172 -4.36834 1.99989
thorax 3.50601 -2.25021 4.38816
lowerneck -19.8724 -5.99347 -13.77
upperneck 18.6107 -7.08072 12.587
head 10.1871 -2.87984 5.72967
lclavicle 2.70632e-14 1.18682e-14 0
lhumerus -34.3921 -9.97379 95.0414
lradius 23.1613 0 0
lwrist -3.71614 0 0
lhand -8.10016 -19.9857 0
lfingers 7.12502 0 0
lthumb 17.8101 9.18566 0
rclavicle 2.70632e-14 1.18682e-14 0
rhumerus -48.6466 4.56841 -82.5477
rradius 29.8803 0 0
rwrist -17.1168 0 0
rhand -28.0275 -27.3115 0
rfingers 7.12502 0 0
rthumb -1.41238 -57.28 0
142
root 8.70323 15.9116 -16.7719 6.51586 8.62981 4.0736
lfemur 25.9121 4.44892 -19.6194
ltibia 1.36787 0 0
lfoot 1.25364 -2.30933 0
ltoes -15.342 0 0
rfemur -41.9679 2.22528 14.2603
rtibia 37.83 0 0
rfoot -5.71481 -5.31637 0
rtoes -18.4301 0 0
lowerback -7.14995 -3.43023 -4.69655
upperback -1.14296 -4.27158 2.09442
thorax 3.32261 -2.19523 4.37166
lowerneck -19.6712 -5.969 -13.8272
upperneck 18.1375 -7.04702 12.7321
head 9.98579 -2.85848 5.78513
lclavicle 1.57871e-14 1.36664e-14 0
lhumerus -34.7407 -6.81805 93.6097
lradius 21.4502 0 0
lwrist -6.42411 0 0
lhand -9.84923 -21.2919 0
lfingers 7.12502 0 0
lthumb 16.1257 8.0123 0
rclavicle 1.57871e-14 1.36664e-14 0
rhumerus -48.5071 4.44739 -82.2911
rradius 29.5409 0 0
rwrist -16.5704 0 0
rhand -28.9242 -25.3965 0
rfingers 7.12502 0 0
rthumb -2.27841 -55.3574 0
